# xmcd
#
# Track frame offsets:
#	150
#	14885
#	29616
#	53196
#	71001
#	86752
#	103522
#	120032
#	138197
#	154370
#	171369
#	186503
#	207362
#	223004
#	241388
#	253989
#	273118
#	290413
#	306480
#	322079
#
# Disc length: 4598 seconds
#
# Revision: 1
# Processed by: cddbd v1.5.1PL0 Copyright (c) Steve Scherf et al.
# Submitted via: audiograbber 1.83.01
#
DISCID=3b11f414
DTITLE=Various Artist - Radio Reliz.
DYEAR=1900
DGENRE=
TTITLE0=Will Smith. - Switch.
TTITLE1=Speak. - Rumors.
TTITLE2=Arash. - Boro Boro. (Extended Mix)
TTITLE3=Arash. - Boro Boro. (Go Go Rmx)
TTITLE4=2Play. - It Cant Be Right. (Main Mix)
TTITLE5=J-Five. - Find A Way.
TTITLE6=Papi Sanchez. - Enamorame.
TTITLE7=Papi Sanchez. - Enamorame. (Merengue Pasion Rmx)
TTITLE8=K-Maro. - Crazy.
TTITLE9=Sarah Connor. - From Zero to Hero.
TTITLE10=Bodies Without Organs. (BWO) - Conquering America. (Radio Edit)
TTITLE11=Mylene Farmer. - Fuck Them All.
TTITLE12=Ночные сайперы. - Куба.
TTITLE13=Руки вверх. - Отель.
TTITLE14=Авраам Руссо. - Обручальная.
TTITLE15=Земфира. - Прогулка.
TTITLE16=Николай Басков and Таисия Повали. - Отпусти меня.
TTITLE17=Краски. - Я буду ждать.
TTITLE18=Варвара - Летала да-пела.
TTITLE19=Алла Пугачева. - Звезда.
EXTD=
EXTT0=
EXTT1=
EXTT2=
EXTT3=
EXTT4=
EXTT5=
EXTT6=
EXTT7=
EXTT8=
EXTT9=
EXTT10=
EXTT11=
EXTT12=
EXTT13=
EXTT14=
EXTT15=
EXTT16=
EXTT17=
EXTT18=
EXTT19=
PLAYORDER=
